<mxfile host="app.diagrams.net" modified="2021-08-25T15:40:07.499Z" agent="5.0 (Windows NT 10.0; Win64; x64) AppleWebKit/537.36 (KHTML, like Gecko) Chrome/92.0.4515.159 Safari/537.36" etag="7o_q5sY-CroKuNKRPB5t" version="14.9.9" type="github">
  <diagram id="mNcazdYqrScGo-ckMxGz" name="Page-1">
    <mxGraphModel dx="868" dy="450" grid="1" gridSize="10" guides="1" tooltips="1" connect="1" arrows="1" fold="1" page="1" pageScale="1" pageWidth="827" pageHeight="1169" math="0" shadow="0">
      <root>
        <mxCell id="0" />
        <mxCell id="1" parent="0" />
        <mxCell id="RiHJJ9DkwgQ9yB0pSNqF-4" style="edgeStyle=orthogonalEdgeStyle;rounded=0;orthogonalLoop=1;jettySize=auto;html=1;exitX=0.5;exitY=1;exitDx=0;exitDy=0;" parent="1" source="RiHJJ9DkwgQ9yB0pSNqF-1" target="RiHJJ9DkwgQ9yB0pSNqF-2" edge="1">
          <mxGeometry relative="1" as="geometry" />
        </mxCell>
        <mxCell id="RiHJJ9DkwgQ9yB0pSNqF-1" value="Entity" style="rounded=1;whiteSpace=wrap;html=1;fillColor=#f8cecc;strokeColor=#b85450;" parent="1" vertex="1">
          <mxGeometry x="180" y="210" width="60" height="30" as="geometry" />
        </mxCell>
        <mxCell id="opqzNrTBNq9YU01EjQXV-1" style="edgeStyle=orthogonalEdgeStyle;rounded=0;orthogonalLoop=1;jettySize=auto;html=1;exitX=0.5;exitY=1;exitDx=0;exitDy=0;" edge="1" parent="1" source="RiHJJ9DkwgQ9yB0pSNqF-2" target="RiHJJ9DkwgQ9yB0pSNqF-6">
          <mxGeometry relative="1" as="geometry" />
        </mxCell>
        <mxCell id="RiHJJ9DkwgQ9yB0pSNqF-2" value="LivingEntity" style="rounded=1;whiteSpace=wrap;html=1;fillColor=#f8cecc;strokeColor=#b85450;" parent="1" vertex="1">
          <mxGeometry x="155" y="300" width="110" height="30" as="geometry" />
        </mxCell>
        <mxCell id="RiHJJ9DkwgQ9yB0pSNqF-13" style="edgeStyle=orthogonalEdgeStyle;rounded=0;orthogonalLoop=1;jettySize=auto;html=1;exitX=0.5;exitY=1;exitDx=0;exitDy=0;" parent="1" source="RiHJJ9DkwgQ9yB0pSNqF-6" target="RiHJJ9DkwgQ9yB0pSNqF-7" edge="1">
          <mxGeometry relative="1" as="geometry" />
        </mxCell>
        <mxCell id="RiHJJ9DkwgQ9yB0pSNqF-6" value="Mob" style="rounded=1;whiteSpace=wrap;html=1;fillColor=#f8cecc;strokeColor=#b85450;" parent="1" vertex="1">
          <mxGeometry x="155" y="380" width="110" height="30" as="geometry" />
        </mxCell>
        <mxCell id="RiHJJ9DkwgQ9yB0pSNqF-14" style="edgeStyle=orthogonalEdgeStyle;rounded=0;orthogonalLoop=1;jettySize=auto;html=1;exitX=0.5;exitY=1;exitDx=0;exitDy=0;entryX=0.5;entryY=0;entryDx=0;entryDy=0;" parent="1" source="RiHJJ9DkwgQ9yB0pSNqF-7" target="RiHJJ9DkwgQ9yB0pSNqF-9" edge="1">
          <mxGeometry relative="1" as="geometry" />
        </mxCell>
        <mxCell id="RiHJJ9DkwgQ9yB0pSNqF-7" value="PathfinderMob" style="rounded=1;whiteSpace=wrap;html=1;fillColor=#f8cecc;strokeColor=#b85450;" parent="1" vertex="1">
          <mxGeometry x="155" y="450" width="110" height="30" as="geometry" />
        </mxCell>
        <mxCell id="RiHJJ9DkwgQ9yB0pSNqF-15" style="edgeStyle=orthogonalEdgeStyle;rounded=0;orthogonalLoop=1;jettySize=auto;html=1;exitX=0.5;exitY=1;exitDx=0;exitDy=0;entryX=0.5;entryY=0;entryDx=0;entryDy=0;" parent="1" source="RiHJJ9DkwgQ9yB0pSNqF-9" target="RiHJJ9DkwgQ9yB0pSNqF-10" edge="1">
          <mxGeometry relative="1" as="geometry" />
        </mxCell>
        <mxCell id="RiHJJ9DkwgQ9yB0pSNqF-9" value="AgeableMob" style="rounded=1;whiteSpace=wrap;html=1;fillColor=#f8cecc;strokeColor=#b85450;" parent="1" vertex="1">
          <mxGeometry x="155" y="530" width="110" height="30" as="geometry" />
        </mxCell>
        <mxCell id="RiHJJ9DkwgQ9yB0pSNqF-16" style="edgeStyle=orthogonalEdgeStyle;rounded=0;orthogonalLoop=1;jettySize=auto;html=1;exitX=0.5;exitY=1;exitDx=0;exitDy=0;entryX=0.5;entryY=0;entryDx=0;entryDy=0;" parent="1" source="RiHJJ9DkwgQ9yB0pSNqF-10" target="RiHJJ9DkwgQ9yB0pSNqF-11" edge="1">
          <mxGeometry relative="1" as="geometry" />
        </mxCell>
        <mxCell id="RiHJJ9DkwgQ9yB0pSNqF-10" value="Animal" style="rounded=1;whiteSpace=wrap;html=1;fillColor=#f8cecc;strokeColor=#b85450;" parent="1" vertex="1">
          <mxGeometry x="155" y="600" width="110" height="30" as="geometry" />
        </mxCell>
        <mxCell id="RiHJJ9DkwgQ9yB0pSNqF-11" value="Cow" style="rounded=1;whiteSpace=wrap;html=1;fillColor=#f8cecc;strokeColor=#b85450;" parent="1" vertex="1">
          <mxGeometry x="155" y="680" width="110" height="30" as="geometry" />
        </mxCell>
      </root>
    </mxGraphModel>
  </diagram>
</mxfile>
